<?xml version="1.0" encoding="UTF-8"?>
<svg id="Layer_1" data-name="Layer 1" xmlns="http://www.w3.org/2000/svg" version="1.1" viewBox="0 0 149.4 107.2">
  <defs>
    <style>
      .cls-1 {
        fill: #ffad1e;
      }

      .cls-1, .cls-2, .cls-3, .cls-4, .cls-5 {
        stroke-width: 0px;
      }

      .cls-2 {
        fill: #ff453a;
      }

      .cls-3 {
        fill: #d12132;
      }

      .cls-4 {
        fill: #ffcc13;
      }

      .cls-5 {
        fill: #006dcc;
      }

      .cls-6 {
        fill: #fff;
        stroke: #a7a9ac;
        stroke-width: .8px;
      }
    </style>
  </defs>
  <g>
    <path class="cls-5" d="M0,30.9l1.5-1.4,3.4,3.5h0c-.2-.5-.4-.9-.6-1.4l-1.3-3.5,1.7-1.6,1.5,5.1,6,2.7-1.7,1.6-4.2-2.2.3,1,2.5,2.6-1.5,1.4L0,30.9Z"/>
    <path class="cls-5" d="M7.7,23.9l4.4,5.5c1,1.2,1.7,1.3,2.1,1,.5-.4.5-1-.5-2.3l-4.4-5.5,1.6-1.3,4.2,5.2c1.8,2.2,1.9,4,.2,5.3-1.8,1.4-3.4.8-5.1-1.4l-4.2-5.2,1.6-1.3Z"/>
    <path class="cls-5" d="M16.6,17.5c.5-.5,1.2-1,1.9-1.4.9-.5,1.8-.9,2.7-.8.8.1,1.3.6,1.7,1.2.5.8.6,1.9,0,2.8h0c1.2-.3,2.4.2,3,1.2.5.8.6,1.5.4,2.2-.2.9-.9,1.9-2.4,2.8-.7.4-1.3.7-1.7.9l-5.6-9ZM20.6,20.1l.4-.2c.6-.4.8-1.2.3-2-.4-.7-1.1-1-1.8-.5-.2.1-.3.2-.4.3l1.5,2.4ZM23.2,24.1c.1,0,.2-.1.4-.2.7-.4,1.1-1.3.5-2.2-.6-.9-1.5-1-2.2-.6l-.4.2,1.7,2.8Z"/>
    <path class="cls-5" d="M24,12.9l1.9-1,4.2,8,2.5-1.3.8,1.6-4.3,2.3-5-9.6Z"/>
    <path class="cls-5" d="M37.8,12.1c1.6,3.8,1,5.9-.9,6.7-2.3,1-4.2-1-5.4-3.8-1.2-2.7-1.1-5.5,1.1-6.5,2.4-1.1,4.2,1.3,5.2,3.6ZM33.5,14.2c1,2.3,1.9,3.2,2.7,2.9.8-.4.5-2-.4-4-.8-1.7-1.7-3.2-2.6-2.8-.8.3-.7,1.8.3,3.9Z"/>
    <path class="cls-5" d="M46.3,14.9c-.2.2-.8.5-1.5.8-2.6.9-4.6-.8-5.6-3.7-1.3-3.9.3-6.1,2.3-6.8.7-.2,1.2-.3,1.5-.2l.2,1.8c-.3,0-.6,0-1,.1-1.1.4-1.8,1.7-.9,4.3.9,2.4,2.1,3.1,3.3,2.7.3-.1.7-.3.9-.5l.8,1.6Z"/>
    <path class="cls-5" d="M44.8,4.2l2-.5,1.3,4.7h0c0-.5.1-1,.1-1.5l.5-3.7,2.2-.6-1.1,5.2,4,5.3-2.2.6-2.7-3.9-.2,1,.9,3.5-2,.5-2.8-10.5Z"/>
    <path class="cls-5" d="M60,11.7c-.3.2-.8.4-1.6.6-2.7.5-4.4-1.5-5-4.5-.8-4,1.2-6,3.2-6.4.7-.1,1.3,0,1.5,0v1.8c-.3,0-.6-.1-1,0-1.2.2-2,1.4-1.5,4.1.5,2.6,1.6,3.4,2.9,3.1.4,0,.7-.2,1-.3l.5,1.7Z"/>
    <path class="cls-5" d="M62.3.7l.5,4.3,2.2-.2-.5-4.3,2.1-.2,1.1,10.8-2.1.2-.5-4.5-2.2.2.5,4.5-2.1.2-1.1-10.8,2.1-.2Z"/>
    <path class="cls-5" d="M71.3,8.4l-.4,2.5h-2c0,0,2.1-10.8,2.1-10.8h2.5c0,0,2.4,10.7,2.4,10.7h-2c0,0-.5-2.4-.5-2.4h-1.9ZM73.1,6.7l-.4-2.3c-.1-.7-.3-1.7-.4-2.4h0c-.1.7-.2,1.9-.3,2.5l-.4,2.3h1.6Z"/>
    <path class="cls-5" d="M79.8,0l-.4,10.8h-2.1c0,0,.4-10.9.4-10.9h2.1Z"/>
    <path class="cls-5" d="M81.6,11l1.2-10.8,1.9.2,1.2,4.4c.2.9.6,2.3.8,3.3h0c0-1.1.1-3,.3-5l.3-2.4,1.8.2-1.2,10.8-1.9-.2-1.2-4.3c-.2-.9-.6-2.4-.7-3.4h0c0,1.1-.2,2.8-.4,4.9l-.3,2.4-1.8-.2Z"/>
    <path class="cls-5" d="M98.2,2.6l-2.3,10.6-2.1-.4,2.3-10.6,2.1.4Z"/>
    <path class="cls-5" d="M97.9,13.6l3-10.4,1.9.5.4,4.6c0,.9.2,2.4.2,3.4h0c.3-1.1.6-3,1.2-4.9l.7-2.3,1.8.5-3,10.4-1.9-.5-.4-4.4c0-1-.2-2.4-.1-3.4h0c-.3,1.1-.6,2.7-1.2,4.8l-.7,2.4-1.8-.5Z"/>
    <path class="cls-5" d="M106.4,14c.3.4.9.8,1.5,1,.9.4,1.6,0,1.8-.6.3-.7,0-1.3-.7-2.1-1.1-1.4-1.2-2.6-.8-3.6.6-1.6,2.2-2.6,4.3-1.8.7.2,1.2.7,1.5,1l-1,1.6c-.2-.3-.6-.6-1.2-.8-.8-.3-1.4,0-1.6.6-.2.6,0,1,.8,2.1,1,1.3,1.1,2.5.7,3.6-.7,1.9-2.5,2.6-4.5,1.8-.8-.3-1.5-.8-1.8-1.1l.9-1.6Z"/>
    <path class="cls-5" d="M116.7,10.9l-1.7-.8.8-1.8,5.4,2.5-.8,1.8-1.8-.8-3.7,8.1-1.9-.9,3.7-8.1Z"/>
    <path class="cls-5" d="M124.8,12.6l-5.1,9.6-1.9-1,5.1-9.6,1.9,1Z"/>
    <path class="cls-5" d="M127.1,16.2l-1.6-1,1-1.7,5.1,3.1-1,1.7-1.6-1-4.6,7.6-1.8-1.1,4.6-7.6Z"/>
    <path class="cls-5" d="M135,19l-4.1,5.7c-.9,1.3-.8,2-.4,2.3.5.4,1.1.3,2.1-1.1l4.1-5.7,1.7,1.2-3.9,5.4c-1.6,2.3-3.4,2.9-5.1,1.7-1.9-1.3-1.7-3.1,0-5.3l3.9-5.4,1.7,1.2Z"/>
    <path class="cls-5" d="M140.2,25.4l-1.5-1.2,1.2-1.5,4.6,3.8-1.2,1.5-1.5-1.2-5.7,6.8-1.6-1.4,5.7-6.8Z"/>
    <path class="cls-5" d="M145.1,35.4l-1.8-1.7-2,2.1,2,1.9-1.3,1.3-3.5-3.4,7.5-7.8,3.4,3.3-1.3,1.3-1.9-1.8-1.7,1.8,1.8,1.7-1.2,1.3Z"/>
  </g>
  <polygon class="cls-6" points="110.1 29.8 92.2 47.6 74.5 29.8 56.7 47.6 38.9 29.8 18.3 50.4 74.5 106.6 130.6 50.4 110.1 29.8"/>
  <rect class="cls-5" x="27.2" y="38.8" width="23.2" height="23.2" transform="translate(-24.2 42.2) rotate(-45)"/>
  <rect class="cls-5" x="98.4" y="38.8" width="23.2" height="23.2" transform="translate(-3.4 92.6) rotate(-45)"/>
  <polygon class="cls-2" points="90.7 68.2 83.3 75.6 92.2 84.6 108.7 68.2 92.2 51.8 83.2 60.8 90.7 68.2"/>
  <polygon class="cls-2" points="74.5 66.8 90.9 50.4 74.5 34 74.5 66.8"/>
  <polygon class="cls-3" points="65.7 60.8 56.7 51.8 40.2 68.2 56.7 84.6 65.6 75.6 58.2 68.2 65.7 60.8"/>
  <polygon class="cls-3" points="74.5 66.8 74.5 34 58 50.4 74.5 66.8"/>
  <polygon class="cls-4" points="74.5 102.4 74.5 102.4 90.9 86 74.5 69.6 74.6 86.4 74.5 102.4"/>
  <polygon class="cls-1" points="74.5 69.6 74.5 69.6 74.4 69.6 58 86 74.2 102.2 74.5 102.4 74.6 86.4 74.5 69.6"/>
  <rect class="cls-5" x="62.3" y="63.7" width="8.9" height="8.9" transform="translate(-28.7 67.2) rotate(-45)"/>
  <rect class="cls-5" x="77.7" y="63.7" width="8.9" height="8.9" transform="translate(-24.2 78) rotate(-45)"/>
</svg>